<?xml version="1.0" encoding="UTF-8"?>
<!DOCTYPE svg PUBLIC "-//W3C//DTD SVG 1.1//EN" "http://www.w3.org/Graphics/SVG/1.1/DTD/svg11.dtd">
<!-- Creator: CorelDRAW -->
<svg xmlns="http://www.w3.org/2000/svg" xml:space="preserve" width="43.6936mm" height="22.7118mm" version="1.1" style="shape-rendering:geometricPrecision; text-rendering:geometricPrecision; image-rendering:optimizeQuality; fill-rule:evenodd; clip-rule:evenodd"
viewBox="0 0 605.08 314.52"
 xmlns:xlink="http://www.w3.org/1999/xlink"
 xmlns:xodm="http://www.corel.com/coreldraw/odm/2003">
 <defs>
  <style type="text/css">
   <![CDATA[
    .str0 {stroke:#FEFEFE;stroke-width:2.77;stroke-miterlimit:22.9256}
    .fil0 {fill:#FEFEFE;fill-rule:nonzero}
    .fil2 {fill:#0F172A;fill-rule:nonzero}
    .fil1 {fill:#FEFEFE;fill-rule:nonzero}
   ]]>
  </style>
 </defs>
 <g id="Camada_x0020_1">
  <metadata id="CorelCorpID_0Corel-Layer"/>
  <polygon class="fil0" points="512.48,264.64 92.6,264.64 -0,165.89 92.6,67.14 512.48,67.14 605.08,165.89 "/>
  <path class="fil1 str0" d="M100.27 6.78l104.91 0 39.57 39.57c0.27,0.26 0.63,0.42 1.01,0.42l268.24 0 41.8 41.8c0.56,0.56 1.46,0.56 2.01,0 0.56,-0.55 0.56,-1.46 0,-2.01l-42.21 -42.22c-0.26,-0.26 -0.63,-0.42 -1.01,-0.42l-268.24 0 -39.57 -39.57c-0.26,-0.26 -0.63,-0.42 -1.01,-0.42l-105.5 0c-0.79,0 -1.42,0.64 -1.42,1.42 0,0.79 0.63,1.42 1.42,1.42l0 0 -0 0z"/>
  <path class="fil1" d="M100.54 10.71c-2.96,0 -5.36,-2.4 -5.36,-5.36 0,-2.96 2.4,-5.36 5.36,-5.36 2.96,0 5.36,2.4 5.36,5.36 0,2.96 -2.4,5.36 -5.36,5.36z"/>
  <path class="fil1" d="M552.82 91.16c2.09,2.09 5.48,2.09 7.57,0 2.09,-2.09 2.09,-5.48 0,-7.57 -2.09,-2.09 -5.48,-2.09 -7.57,0 -2.1,2.09 -2.1,5.48 0,7.57z"/>
  <path class="fil1" d="M330.14 30.06l152.31 0c0.79,0 1.42,-0.64 1.42,-1.42 0,-0.79 -0.64,-1.42 -1.42,-1.42l-152.31 0c-0.79,0 -1.42,0.64 -1.42,1.42 0,0.79 0.64,1.42 1.42,1.42z"/>
  <path class="fil1" d="M330.41 33.99c-2.96,0 -5.36,-2.4 -5.36,-5.36 0,-2.96 2.4,-5.36 5.36,-5.36 2.96,0 5.36,2.4 5.36,5.36 0,2.96 -2.4,5.36 -5.36,5.36z"/>
  <path class="fil1" d="M482.19 33.99c2.96,0 5.36,-2.4 5.36,-5.36 0,-2.96 -2.4,-5.36 -5.36,-5.36 -2.96,0 -5.36,2.4 -5.36,5.36 0,2.96 2.4,5.36 5.36,5.36z"/>
  <path class="fil1" d="M412.06 307.74l-104.91 0 -23.32 -23.32c-0.26,-0.26 -0.63,-0.42 -1.01,-0.42l-198.57 0 -41.8 -41.8c-0.56,-0.56 -1.46,-0.56 -2.02,0 -0.55,0.56 -0.55,1.46 0,2.01l42.22 42.21c0.26,0.27 0.63,0.42 1.01,0.42l198.57 0 23.32 23.32c0.26,0.26 0.63,0.42 1.01,0.42l105.5 0c0.79,0 1.42,-0.64 1.42,-1.42 0,-0.79 -0.64,-1.42 -1.42,-1.42l0 0 0 0z"/>
  <path class="fil1" d="M411.79 303.81c2.96,0 5.36,2.4 5.36,5.36 0,2.96 -2.4,5.36 -5.36,5.36 -2.96,0 -5.36,-2.4 -5.36,-5.36 0,-2.96 2.4,-5.36 5.36,-5.36z"/>
  <path class="fil1" d="M45.42 239.61c-2.09,-2.09 -5.48,-2.09 -7.57,0 -2.09,2.1 -2.09,5.49 0,7.57 2.09,2.09 5.48,2.09 7.57,0 2.1,-2.09 2.1,-5.48 0,-7.57z"/>
  <path class="fil1" d="M270.64 300.71l-154.85 0c-0.79,0 -1.42,0.64 -1.42,1.42 0,0.79 0.64,1.42 1.42,1.42l154.85 0c0.79,0 1.42,-0.64 1.42,-1.42 0,-0.79 -0.64,-1.42 -1.42,-1.42z"/>
  <path class="fil1" d="M270.37 296.78c2.96,0 5.36,2.4 5.36,5.36 0,2.96 -2.4,5.36 -5.36,5.36 -2.96,0 -5.36,-2.4 -5.36,-5.36 0,-2.96 2.4,-5.36 5.36,-5.36z"/>
  <path class="fil1" d="M116.05 296.78c-2.96,0 -5.36,2.4 -5.36,5.36 0,2.96 2.4,5.36 5.36,5.36 2.96,0 5.36,-2.4 5.36,-5.36 0,-2.96 -2.4,-5.36 -5.36,-5.36z"/>
  <path class="fil2" d="M172.72 191.49l-29.19 0 0 -84.13 -26.36 0 0 -23.85 81.84 0 0 23.85 -26.29 0 0 84.13 0 0zm105.81 0l-64.1 0 0 -107.98 64.1 0 0 23.42 -34.93 0 0 16.99 32.34 0 0 23.41 -32.34 0 0 20.39 34.93 0 0 23.77 0 -0zm66.97 -85.72c-3.45,0 -6.53,0.73 -9.22,2.19 -2.72,1.46 -5.01,3.58 -6.93,6.35 -1.94,2.77 -3.4,6.15 -4.41,10.13 -1.01,3.98 -1.51,8.49 -1.51,13.53 0,6.83 0.86,12.58 2.6,17.21 1.71,4.66 4.33,8.16 7.86,10.54 3.5,2.39 7.94,3.58 13.26,3.58 4.81,0 9.45,-0.68 13.91,-1.99 4.46,-1.34 8.95,-2.95 13.48,-4.81l0 24.67c-4.79,2.12 -9.68,3.63 -14.67,4.56 -4.99,0.93 -10.31,1.41 -15.9,1.41 -11.72,0 -21.32,-2.35 -28.76,-7.01 -7.46,-4.66 -12.96,-11.14 -16.48,-19.43 -3.5,-8.29 -5.27,-17.92 -5.27,-28.88 0,-8.19 1.14,-15.7 3.43,-22.51 2.3,-6.81 5.65,-12.73 10.08,-17.74 4.44,-4.99 9.91,-8.87 16.43,-11.62 6.53,-2.75 13.99,-4.11 22.41,-4.11 5.22,0 10.71,0.6 16.51,1.81 5.77,1.21 11.42,3.13 16.94,5.8l-8.95 22.96c-3.93,-1.86 -7.92,-3.45 -11.95,-4.74 -4.03,-1.26 -8.32,-1.92 -12.86,-1.92l0 0zm142.61 85.72l-29.31 0 0 -44.01 -33.9 0 0 44.01 -29.31 0 0 -107.98 29.31 0 0 40.05 33.9 0 0 -40.05 29.31 0 0 107.98z"/>
  <path class="fil2" d="M244.09 213.75c2.75,0 5.24,0.56 7.47,1.67 2.23,1.11 3.99,2.83 5.27,5.15 1.29,2.31 1.93,5.31 1.93,8.98l0 20.31 -12.45 0 0 -18.28c0,-2.53 -0.51,-4.38 -1.54,-5.54 -1.02,-1.16 -2.46,-1.74 -4.29,-1.74 -1.31,0 -2.51,0.29 -3.6,0.89 -1.09,0.59 -1.94,1.5 -2.55,2.72 -0.61,1.22 -0.92,2.82 -0.92,4.78l0 17.17 -12.45 0 0 -35.52 11.86 0 0 10.09 -2.29 -2.95c1.35,-2.58 3.21,-4.51 5.57,-5.8 2.36,-1.29 5.02,-1.93 7.99,-1.93l0 -0.01zm41.54 36.7c-4.19,0 -7.85,-0.8 -10.98,-2.39 -3.12,-1.59 -5.55,-3.78 -7.27,-6.55 -1.73,-2.77 -2.59,-5.93 -2.59,-9.47 0,-3.54 0.84,-6.69 2.52,-9.47 1.68,-2.78 4.01,-4.94 6.98,-6.49 2.97,-1.55 6.31,-2.33 10.03,-2.33 3.49,0 6.68,0.71 9.56,2.13 2.88,1.42 5.18,3.51 6.88,6.26 1.7,2.75 2.56,6.09 2.56,10.03 0,0.44 -0.02,0.94 -0.07,1.51 -0.05,0.57 -0.09,1.09 -0.13,1.57l-28.11 0 0 -6.55 21.49 0 -4.72 1.83c0.04,-1.62 -0.25,-3.01 -0.89,-4.19 -0.63,-1.18 -1.51,-2.1 -2.62,-2.75 -1.11,-0.66 -2.42,-0.98 -3.9,-0.98 -1.49,0 -2.79,0.33 -3.9,0.98 -1.11,0.66 -1.97,1.58 -2.59,2.79 -0.61,1.2 -0.92,2.61 -0.92,4.23l0 1.9c0,1.75 0.36,3.26 1.08,4.52 0.72,1.27 1.76,2.24 3.11,2.92 1.35,0.68 2.97,1.02 4.85,1.02 1.75,0 3.24,-0.25 4.49,-0.75 1.24,-0.5 2.48,-1.28 3.7,-2.33l6.55 6.81c-1.7,1.88 -3.8,3.31 -6.29,4.29 -2.49,0.98 -5.44,1.47 -8.85,1.47l0.01 -0zm31.26 -0.59l-12.65 -35.52 11.8 0 10.03 29.68 -5.63 0 10.42 -29.68 10.62 0 10.03 29.68 -5.5 0 10.35 -29.68 10.94 0 -12.65 35.52 -12.06 0 -8.52 -24.57 3.67 0 -8.78 24.57 -12.06 0 -0 0zm66.51 0.59c-3.01,0 -5.95,-0.35 -8.81,-1.05 -2.86,-0.7 -5.17,-1.57 -6.91,-2.62l3.73 -8.52c1.66,1.01 3.6,1.8 5.83,2.39 2.23,0.59 4.41,0.89 6.55,0.89 2.1,0 3.55,-0.22 4.36,-0.66 0.81,-0.44 1.21,-1.03 1.21,-1.77 0,-0.7 -0.38,-1.21 -1.14,-1.54 -0.77,-0.33 -1.77,-0.58 -3.02,-0.75 -1.24,-0.17 -2.61,-0.37 -4.09,-0.59 -1.48,-0.22 -2.98,-0.51 -4.49,-0.88 -1.51,-0.37 -2.88,-0.94 -4.13,-1.7 -1.24,-0.76 -2.24,-1.8 -2.98,-3.11 -0.74,-1.31 -1.11,-2.97 -1.11,-4.98 0,-2.27 0.67,-4.29 2,-6.06 1.33,-1.77 3.29,-3.17 5.86,-4.2 2.58,-1.02 5.72,-1.54 9.44,-1.54 2.49,0 5.01,0.25 7.57,0.75 2.55,0.5 4.71,1.25 6.46,2.26l-3.73 8.45c-1.75,-1.01 -3.49,-1.69 -5.24,-2.07 -1.75,-0.37 -3.41,-0.56 -4.98,-0.56 -2.1,0 -3.57,0.24 -4.42,0.72 -0.85,0.48 -1.28,1.07 -1.28,1.77 0,0.7 0.37,1.24 1.11,1.61 0.74,0.37 1.74,0.66 2.98,0.85 1.25,0.19 2.61,0.39 4.09,0.59 1.48,0.2 2.98,0.49 4.49,0.89 1.51,0.39 2.88,0.97 4.13,1.74 1.25,0.76 2.24,1.79 2.98,3.08 0.74,1.29 1.11,2.94 1.11,4.95 0,2.19 -0.67,4.15 -2,5.9 -1.33,1.75 -3.3,3.14 -5.9,4.19 -2.6,1.05 -5.82,1.57 -9.66,1.57l-0.01 -0z"/>
 </g>
</svg>
