<?xml version="1.0" encoding="UTF-8"?>
<!DOCTYPE svg PUBLIC "-//W3C//DTD SVG 1.1//EN" "http://www.w3.org/Graphics/SVG/1.1/DTD/svg11.dtd">
<!-- Creator: CorelDRAW -->
<svg xmlns="http://www.w3.org/2000/svg" xml:space="preserve" width="6.0164mm" height="4.645mm" version="1.1" style="shape-rendering:geometricPrecision; text-rendering:geometricPrecision; image-rendering:optimizeQuality; fill-rule:evenodd; clip-rule:evenodd"
viewBox="0 0 7.68 5.93"
 xmlns:xlink="http://www.w3.org/1999/xlink"
 xmlns:xodm="http://www.corel.com/coreldraw/odm/2003">
 <defs>
  <style type="text/css">
   <![CDATA[
    .fil0 {fill:#FEFEFE;fill-rule:nonzero}
   ]]>
  </style>
 </defs>
 <g id="Camada_x0020_1">
  <metadata id="CorelCorpID_0Corel-Layer"/>
  <path class="fil0" d="M0.35 0c-0,0 -0,0 -0,0 -0.19,0 -0.35,0.16 -0.35,0.35 0,0.19 0.16,0.35 0.35,0.35 0,0 0,0 0,0l6.97 0c0,0 0,0 0,0 0.19,0 0.35,-0.16 0.35,-0.35 0,-0.19 -0.16,-0.35 -0.35,-0.35 -0,0 -0,0 -0,0l-6.97 0zm0 2.62c-0,0 -0,0 -0,0 -0.19,0 -0.35,0.16 -0.35,0.35 0,0.19 0.16,0.35 0.35,0.35 0,0 0,0 0,0l6.97 0c0,0 0,0 0,0 0.19,0 0.35,-0.16 0.35,-0.35 0,-0.19 -0.16,-0.35 -0.35,-0.35 -0,0 -0,0 -0,0l-6.97 0zm0 2.62c-0,0 -0,0 -0,0 -0.19,0 -0.35,0.16 -0.35,0.35 0,0.19 0.16,0.35 0.35,0.35 0,0 0,0 0,0l6.97 0c0,0 0,0 0,0 0.19,0 0.35,-0.16 0.35,-0.35 0,-0.19 -0.16,-0.35 -0.35,-0.35 -0,0 -0,0 -0,0l-6.97 0z"/>
 </g>
</svg>
