<?xml version="1.0" encoding="UTF-8"?>
<!DOCTYPE svg PUBLIC "-//W3C//DTD SVG 1.1//EN" "http://www.w3.org/Graphics/SVG/1.1/DTD/svg11.dtd">
<!-- Creator: CorelDRAW -->
<svg xmlns="http://www.w3.org/2000/svg" xml:space="preserve" width="4.5254mm" height="4.6454mm" version="1.1" style="shape-rendering:geometricPrecision; text-rendering:geometricPrecision; image-rendering:optimizeQuality; fill-rule:evenodd; clip-rule:evenodd"
viewBox="0 0 4.81 4.94"
 xmlns:xlink="http://www.w3.org/1999/xlink"
 xmlns:xodm="http://www.corel.com/coreldraw/odm/2003">
 <defs>
  <style type="text/css">
   <![CDATA[
    .fil0 {fill:#FEFEFE;fill-rule:nonzero}
   ]]>
  </style>
 </defs>
 <g id="Camada_x0020_1">
  <metadata id="CorelCorpID_0Corel-Layer"/>
  <g id="_2211418585696">
   <path class="fil0" d="M1.91 0c-1.06,0 -1.91,0.86 -1.91,1.91 0,1.06 0.86,1.91 1.91,1.91 0.42,0 0.8,-0.13 1.11,-0.36l1.48 1.48 0.31 -0.31 -1.46 -1.48c0.29,-0.33 0.46,-0.77 0.46,-1.24 0,-1.06 -0.86,-1.91 -1.91,-1.91l0.02 0zm0 0.22c0.93,0 1.69,0.75 1.69,1.7 0,0.93 -0.75,1.69 -1.69,1.69 -0.93,0 -1.7,-0.75 -1.7,-1.69 0,-0.93 0.75,-1.7 1.7,-1.7z"/>
  </g>
 </g>
</svg>
